HIERARCHY
ROOT Hips
{
	OFFSET 0.000000 0.000000 0.000000
	CHANNELS 6 Xposition Yposition Zposition Xrotation Yrotation Zrotation
	JOINT Spine
	{
		OFFSET 0.000000 0.000000 -0.000105
		CHANNELS 6 Xposition Yposition Zposition Xrotation Yrotation Zrotation
		JOINT Spine1
		{
			OFFSET 0.000000 0.000000 -0.000238
			CHANNELS 6 Xposition Yposition Zposition Xrotation Yrotation Zrotation
			JOINT Neck
			{
				OFFSET 0.000000 0.000000 -0.000264
				CHANNELS 6 Xposition Yposition Zposition Xrotation Yrotation Zrotation
				JOINT Head
				{
					OFFSET 0.000000 0.000026 -0.000199
					CHANNELS 6 Xposition Yposition Zposition Xrotation Yrotation Zrotation
					End Site
					{
						OFFSET 0.000000 0.000000 -0.000257
					}
				}
			}
			JOINT LeftShoulder
			{
				OFFSET 0.000051 -0.000006 -0.000215
				CHANNELS 6 Xposition Yposition Zposition Xrotation Yrotation Zrotation
				JOINT LeftArm
				{
					OFFSET 0.000149 0.000000 0.000000
					CHANNELS 6 Xposition Yposition Zposition Xrotation Yrotation Zrotation
					JOINT LeftForeArm
					{
						OFFSET 0.000385 0.000000 0.000000
						CHANNELS 6 Xposition Yposition Zposition Xrotation Yrotation Zrotation
						JOINT LeftHand
						{
							OFFSET 0.000345 0.000000 0.000000
							CHANNELS 6 Xposition Yposition Zposition Xrotation Yrotation Zrotation
							End Site
							{
								OFFSET 0.000193 0.000000 0.000000
							}
						}
					}
				}
			}
			JOINT RightShoulder
			{
				OFFSET -0.000051 -0.000006 -0.000215
				CHANNELS 6 Xposition Yposition Zposition Xrotation Yrotation Zrotation
				JOINT RightArm
				{
					OFFSET -0.000149 0.000000 0.000000
					CHANNELS 6 Xposition Yposition Zposition Xrotation Yrotation Zrotation
					JOINT RightForeArm
					{
						OFFSET -0.000385 0.000000 0.000000
						CHANNELS 6 Xposition Yposition Zposition Xrotation Yrotation Zrotation
						JOINT RightHand
						{
							OFFSET -0.000345 0.000000 0.000000
							CHANNELS 6 Xposition Yposition Zposition Xrotation Yrotation Zrotation
							End Site
							{
								OFFSET -0.000193 0.000000 0.000000
							}
						}
					}
				}
			}
		}
	}
	JOINT LeftUpLeg
	{
		OFFSET 0.000128 0.000000 0.000000
		CHANNELS 6 Xposition Yposition Zposition Xrotation Yrotation Zrotation
		JOINT LeftLeg
		{
			OFFSET 0.000000 -0.000000 0.000668
			CHANNELS 6 Xposition Yposition Zposition Xrotation Yrotation Zrotation
			JOINT LeftFoot
			{
				OFFSET 0.000000 -0.000000 0.000537
				CHANNELS 6 Xposition Yposition Zposition Xrotation Yrotation Zrotation
				JOINT LeftToeBase
				{
					OFFSET 0.000000 0.000193 0.000083
					CHANNELS 6 Xposition Yposition Zposition Xrotation Yrotation Zrotation
					End Site
					{
						OFFSET 0.000000 0.000051 0.000000
					}
				}
			}
		}
	}
	JOINT RightUpLeg
	{
		OFFSET -0.000128 0.000000 0.000000
		CHANNELS 6 Xposition Yposition Zposition Xrotation Yrotation Zrotation
		JOINT RightLeg
		{
			OFFSET 0.000000 -0.000000 0.000668
			CHANNELS 6 Xposition Yposition Zposition Xrotation Yrotation Zrotation
			JOINT RightFoot
			{
				OFFSET 0.000000 -0.000000 0.000537
				CHANNELS 6 Xposition Yposition Zposition Xrotation Yrotation Zrotation
				JOINT RightToeBase
				{
					OFFSET 0.000000 0.000193 0.000083
					CHANNELS 6 Xposition Yposition Zposition Xrotation Yrotation Zrotation
					End Site
					{
						OFFSET 0.000000 0.000051 0.000000
					}
				}
			}
		}
	}
}
MOTION
Frames: 4
Frame Time: 0.041667
-0.000057 -0.000106 -0.001193 3.822890 -9.341972 -85.772853 0.000000 0.000000 -0.000105 -8.309657 -0.791063 6.471374 0.000000 0.000000 -0.000238 0.199838 13.287591 2.137529 0.000000 0.000000 -0.000264 24.124115 -12.399885 28.393134 -0.000000 0.000026 -0.000199 -7.102026 37.152394 35.079022 0.000051 -0.000006 -0.000215 -2.196189 15.772973 10.485767 0.000149 -0.000000 -0.000000 16.238577 -9.689681 1.330992 0.000385 0.000000 0.000000 -26.277968 14.534588 -0.313929 0.000345 0.000000 -0.000000 -25.437289 -38.733111 2.504136 -0.000051 -0.000006 -0.000215 8.360953 -5.706320 6.536841 -0.000149 0.000000 0.000000 31.050218 28.298208 -20.410887 -0.000385 0.000000 -0.000000 -13.290297 -15.403866 -65.881758 -0.000345 0.000000 -0.000000 -3.085768 5.470252 -4.014302 0.000128 0.000000 -0.000000 -17.083114 7.308622 5.858388 -0.000000 -0.000000 0.000668 28.699939 -10.422722 -11.856747 -0.000000 -0.000000 0.000537 -13.016241 -0.409604 -18.652787 -0.000000 0.000193 0.000083 -0.000005 0.000002 0.000005 -0.000128 0.000000 -0.000000 -22.148289 -8.535515 -7.317705 -0.000000 -0.000000 0.000668 37.448616 5.577049 -2.114688 0.000000 -0.000000 0.000537 -20.784455 4.504116 2.026016 0.000000 0.000193 0.000083 -0.000001 -0.000000 -0.000000 
-0.000057 -0.000110 -0.001195 3.799195 -9.330131 -85.542266 0.000000 0.000000 -0.000105 -8.377761 -0.712317 6.462957 0.000000 0.000000 -0.000238 0.141441 13.044831 2.139986 0.000000 -0.000000 -0.000264 24.265114 -12.423198 28.396622 -0.000000 0.000026 -0.000199 -7.699601 37.010391 35.243578 0.000051 -0.000006 -0.000215 -2.156195 15.833432 10.533753 0.000149 -0.000000 -0.000000 16.087242 -9.702019 1.249293 0.000385 -0.000000 -0.000000 -26.243679 14.510098 -0.274007 0.000345 0.000000 0.000000 -25.400862 -38.843016 2.487850 -0.000051 -0.000006 -0.000215 8.204912 -5.940683 6.519339 -0.000149 -0.000000 0.000000 30.600651 28.144001 -19.823535 -0.000385 0.000000 -0.000000 -15.491701 -15.310410 -67.605615 -0.000345 -0.000000 -0.000000 -4.891398 8.607157 -4.242339 0.000128 -0.000000 0.000000 -16.558182 7.071539 5.569745 -0.000000 -0.000000 0.000668 27.654340 -10.183737 -12.046066 -0.000000 -0.000000 0.000537 -12.966843 -0.250749 -18.849876 -0.000000 0.000193 0.000083 -0.000002 0.000001 -0.000001 -0.000128 -0.000000 0.000000 -22.059862 -8.627195 -7.499578 0.000000 -0.000000 0.000668 37.056484 5.492141 -1.980088 0.000000 -0.000000 0.000537 -20.358777 4.850998 1.852657 0.000000 0.000193 0.000083 -0.000001 -0.000000 -0.000000 
-0.000057 -0.000114 -0.001196 3.775646 -9.315672 -85.341062 -0.000000 0.000000 -0.000105 -8.413274 -0.620894 6.471934 0.000000 0.000000 -0.000238 0.042068 12.771966 2.152180 -0.000000 0.000000 -0.000264 24.398313 -12.431834 28.417332 -0.000000 0.000026 -0.000199 -8.252122 36.851374 35.406816 0.000051 -0.000006 -0.000215 -2.123988 15.921839 10.585145 0.000149 0.000000 -0.000000 16.291523 -9.780135 1.322401 0.000385 0.000000 -0.000000 -26.384922 14.656751 -0.359334 0.000345 0.000000 0.000000 -25.562965 -38.922916 2.455387 -0.000051 -0.000006 -0.000215 7.959132 -6.225225 6.393115 -0.000149 -0.000000 -0.000000 29.781711 28.150316 -18.912413 -0.000385 0.000000 -0.000000 -17.231831 -14.860533 -69.351063 -0.000345 -0.000000 -0.000000 -6.521713 11.313014 -4.066211 0.000128 -0.000000 0.000000 -16.079852 6.800945 5.263792 -0.000000 -0.000000 0.000668 26.626413 -9.958040 -12.626028 -0.000000 -0.000000 0.000537 -12.844949 0.135642 -18.722008 -0.000000 0.000193 0.000083 0.000001 -0.000000 0.000002 -0.000128 -0.000000 -0.000000 -21.973101 -8.698825 -7.664015 -0.000000 -0.000000 0.000668 36.675732 5.333250 -1.742739 -0.000000 -0.000000 0.000537 -19.929271 5.255215 1.605894 0.000000 0.000193 0.000083 -0.000001 -0.000000 -0.000000 
-0.000057 -0.000119 -0.001197 3.766096 -9.301947 -85.118432 0.000000 0.000000 -0.000105 -8.391512 -0.547195 6.467634 0.000000 0.000000 -0.000238 -0.159886 12.533617 2.171117 -0.000000 0.000000 -0.000264 24.570596 -12.486535 28.437255 -0.000000 0.000026 -0.000199 -8.775297 36.702670 35.551712 0.000051 -0.000006 -0.000215 -2.006178 15.984128 10.581977 0.000149 -0.000000 0.000000 15.749363 -9.722754 1.190732 0.000385 0.000000 -0.000000 -26.171697 14.451902 -0.252563 0.000345 0.000000 -0.000000 -25.336559 -38.851619 2.457398 -0.000051 -0.000006 -0.000215 7.853927 -6.565749 6.354775 -0.000149 0.000000 -0.000000 28.791122 28.110687 -18.102464 -0.000385 0.000000 0.000000 -18.839144 -14.327669 -71.006496 -0.000345 0.000000 -0.000000 -8.135398 13.742588 -3.816514 0.000128 -0.000000 0.000000 -15.633451 6.534796 4.971313 -0.000000 -0.000000 0.000668 25.712356 -9.792830 -13.256881 -0.000000 -0.000000 0.000537 -12.715148 0.559182 -18.473990 0.000000 0.000193 0.000083 0.000001 -0.000001 0.000000 -0.000128 -0.000000 0.000000 -21.889057 -8.781595 -7.942805 -0.000000 -0.000000 0.000668 36.272280 5.236065 -1.547153 -0.000000 -0.000000 0.000537 -19.494933 5.608042 1.478058 -0.000000 0.000193 0.000083 0.000000 -0.000000 -0.000000 
